ffmpeg started on 2025-07-31 at 14:01:10
Report written to "D:\Convert\FFMetrics\reports\psnr_report-6.txt"
Log level: 32
Command line:
ffmpeg -hide_banner -nostdin -i "G:\\\xc0\xed\xe8\xec\xe5\\[\xd4\xe8\xeb\xfc\xec\xfb]\\[OVA]\\[OVA] \xca\xeb\xe8\xed\xee\xea \xea\xee\xf0\xee\xeb\xe5\xe2\xfb - \xc3\xf0\xe8\xec\xf3\xe0\xf0\\Queen's_Blade_Grimoire_[OVA]_[02]_[AniLibria_TV]_[BD_720p]_HEVC.mkv" -i "G:\\\xc0\xed\xe8\xec\xe5\\[\xd4\xe8\xeb\xfc\xec\xfb]\\[OVA]\\[OVA] \xca\xeb\xe8\xed\xee\xea \xea\xee\xf0\xee\xeb\xe5\xe2\xfb - \xc3\xf0\xe8\xec\xf3\xe0\xf0\\Queen's_Blade_Grimoire_[OVA]_[02]_[AniLibria_TV]_[BD_720p].mkv" -lavfi "[0:v]settb=AVTB,setpts=PTS-STARTPTS,format=pix_fmts=yuv420p10,fps=24000/1001,scale=1280:720:flags=bicubic[main];[1:v]settb=AVTB,setpts=PTS-STARTPTS,format=pix_fmts=yuv420p,fps=24000/1001,scale=1280:720:flags=bicubic[ref];[main][ref]psnr=eof_action=endall:stats_file='D\\:/Convert/FFMetrics/logs/psnr_logfile-6.txt'" -f null -
Input #0, matroska,webm, from 'G:\Аниме\[Фильмы]\[OVA]\[OVA] Клинок королевы - Гримуар\Queen's_Blade_Grimoire_[OVA]_[02]_[AniLibria_TV]_[BD_720p]_HEVC.mkv':
  Metadata:
    ENCODER         : Lavf61.7.100
  Duration: 00:28:42.79, start: -0.021000, bitrate: 801 kb/s
  Stream #0:0: Video: hevc (Main 10), yuv420p10le(tv, bt709, progressive), 1280x720 [SAR 1:1 DAR 16:9], 23.97 fps, 23.97 tbr, 1k tbn (default)
      Metadata:
        ENCODER         : Lavc61.19.100 libx265
        BPS             : 603436
        DURATION        : 00:28:42.710711111
        NUMBER_OF_FRAMES: 41304
        NUMBER_OF_BYTES : 129943154
        _STATISTICS_WRITING_APP: mkvpropedit v66.0.0 ('Josie') 64-bit
        _STATISTICS_WRITING_DATE_UTC: 2025-07-31 10:30:43
        _STATISTICS_TAGS: BPS DURATION NUMBER_OF_FRAMES NUMBER_OF_BYTES
  Stream #0:1(rus): Audio: aac (LC), 48000 Hz, stereo, fltp (default)
      Metadata:
        title           : Kari Aemi Silv Lali
        ENCODER         : Lavc61.19.100 aac
        BPS             : 193509
        DURATION        : 00:28:42.772000000
        NUMBER_OF_FRAMES: 80756
        NUMBER_OF_BYTES : 41671680
        _STATISTICS_WRITING_APP: mkvpropedit v66.0.0 ('Josie') 64-bit
        _STATISTICS_WRITING_DATE_UTC: 2025-07-31 10:30:43
        _STATISTICS_TAGS: BPS DURATION NUMBER_OF_FRAMES NUMBER_OF_BYTES
  Stream #0:2(rus): Subtitle: ass (ssa) (default) (forced)
      Metadata:
        title           : Надписи
        BPS             : 1
        DURATION        : 00:23:48.310000000
        NUMBER_OF_FRAMES: 2
        NUMBER_OF_BYTES : 259
        _STATISTICS_WRITING_APP: mkvpropedit v66.0.0 ('Josie') 64-bit
        _STATISTICS_WRITING_DATE_UTC: 2025-07-31 10:30:43
        _STATISTICS_TAGS: BPS DURATION NUMBER_OF_FRAMES NUMBER_OF_BYTES
  Stream #0:3(rus): Subtitle: ass (ssa)
      Metadata:
        title           : Полные
        BPS             : 110
        DURATION        : 00:28:27.880000000
        NUMBER_OF_FRAMES: 352
        NUMBER_OF_BYTES : 23672
        _STATISTICS_WRITING_APP: mkvpropedit v66.0.0 ('Josie') 64-bit
        _STATISTICS_WRITING_DATE_UTC: 2025-07-31 10:30:43
        _STATISTICS_TAGS: BPS DURATION NUMBER_OF_FRAMES NUMBER_OF_BYTES
Input #1, matroska,webm, from 'G:\Аниме\[Фильмы]\[OVA]\[OVA] Клинок королевы - Гримуар\Queen's_Blade_Grimoire_[OVA]_[02]_[AniLibria_TV]_[BD_720p].mkv':
  Metadata:
    encoder         : libebml v1.3.0 + libmatroska v1.4.1
    creation_time   : 2016-11-12T18:53:54.000000Z
  Duration: 00:28:42.77, start: 0.000000, bitrate: 1237 kb/s
  Stream #1:0: Video: h264 (Main), yuv420p(tv, bt709, progressive), 1280x720 [SAR 1:1 DAR 16:9], 23.97 fps, 23.97 tbr, 1k tbn (default)
      Metadata:
        BPS             : 916281
        BPS-eng         : 916281
        DURATION        : 00:28:42.721000000
        DURATION-eng    : 00:28:42.721000000
        NUMBER_OF_FRAMES: 41304
        NUMBER_OF_FRAMES-eng: 41304
        NUMBER_OF_BYTES : 197312213
        NUMBER_OF_BYTES-eng: 197312213
        _STATISTICS_WRITING_APP: mkvmerge v7.3.0 ('Nouages') 64bit built on Oct 22 2014 18:53:34
        _STATISTICS_WRITING_APP-eng: mkvmerge v7.3.0 ('Nouages') 64bit built on Oct 22 2014 18:53:34
        _STATISTICS_WRITING_DATE_UTC: 2016-11-12 18:53:54
        _STATISTICS_WRITING_DATE_UTC-eng: 2016-11-12 18:53:54
        _STATISTICS_TAGS: BPS DURATION NUMBER_OF_FRAMES NUMBER_OF_BYTES
        _STATISTICS_TAGS-eng: BPS DURATION NUMBER_OF_FRAMES NUMBER_OF_BYTES
  Stream #1:1(rus): Audio: aac (LC), 48000 Hz, stereo, fltp (default)
      Metadata:
        title           : Kari Aemi Silv Lali
        BPS             : 192091
        BPS-eng         : 192091
        DURATION        : 00:28:42.773000000
        DURATION-eng    : 00:28:42.773000000
        NUMBER_OF_FRAMES: 80755
        NUMBER_OF_FRAMES-eng: 80755
        NUMBER_OF_BYTES : 41366283
        NUMBER_OF_BYTES-eng: 41366283
        _STATISTICS_WRITING_APP: mkvmerge v7.3.0 ('Nouages') 64bit built on Oct 22 2014 18:53:34
        _STATISTICS_WRITING_APP-eng: mkvmerge v7.3.0 ('Nouages') 64bit built on Oct 22 2014 18:53:34
        _STATISTICS_WRITING_DATE_UTC: 2016-11-12 18:53:54
        _STATISTICS_WRITING_DATE_UTC-eng: 2016-11-12 18:53:54
        _STATISTICS_TAGS: BPS DURATION NUMBER_OF_FRAMES NUMBER_OF_BYTES
        _STATISTICS_TAGS-eng: BPS DURATION NUMBER_OF_FRAMES NUMBER_OF_BYTES
  Stream #1:2(jpn): Audio: aac (LC), 44100 Hz, stereo, fltp
      Metadata:
        title           : Оригинал
        BPS             : 125588
        BPS-eng         : 125588
        DURATION        : 00:28:42.735000000
        DURATION-eng    : 00:28:42.735000000
        NUMBER_OF_FRAMES: 74192
        NUMBER_OF_FRAMES-eng: 74192
        NUMBER_OF_BYTES : 27044414
        NUMBER_OF_BYTES-eng: 27044414
        _STATISTICS_WRITING_APP: mkvmerge v7.3.0 ('Nouages') 64bit built on Oct 22 2014 18:53:34
        _STATISTICS_WRITING_APP-eng: mkvmerge v7.3.0 ('Nouages') 64bit built on Oct 22 2014 18:53:34
        _STATISTICS_WRITING_DATE_UTC: 2016-11-12 18:53:54
        _STATISTICS_WRITING_DATE_UTC-eng: 2016-11-12 18:53:54
        _STATISTICS_TAGS: BPS DURATION NUMBER_OF_FRAMES NUMBER_OF_BYTES
        _STATISTICS_TAGS-eng: BPS DURATION NUMBER_OF_FRAMES NUMBER_OF_BYTES
  Stream #1:3(rus): Subtitle: ass (ssa) (default) (forced)
      Metadata:
        title           : Надписи
        BPS             : 1
        BPS-eng         : 1
        DURATION        : 00:23:48.310000000
        DURATION-eng    : 00:23:48.310000000
        NUMBER_OF_FRAMES: 2
        NUMBER_OF_FRAMES-eng: 2
        NUMBER_OF_BYTES : 259
        NUMBER_OF_BYTES-eng: 259
        _STATISTICS_WRITING_APP: mkvmerge v7.3.0 ('Nouages') 64bit built on Oct 22 2014 18:53:34
        _STATISTICS_WRITING_APP-eng: mkvmerge v7.3.0 ('Nouages') 64bit built on Oct 22 2014 18:53:34
        _STATISTICS_WRITING_DATE_UTC: 2016-11-12 18:53:54
        _STATISTICS_WRITING_DATE_UTC-eng: 2016-11-12 18:53:54
        _STATISTICS_TAGS: BPS DURATION NUMBER_OF_FRAMES NUMBER_OF_BYTES
        _STATISTICS_TAGS-eng: BPS DURATION NUMBER_OF_FRAMES NUMBER_OF_BYTES
  Stream #1:4(rus): Subtitle: ass (ssa)
      Metadata:
        title           : Полные
        BPS             : 110
        BPS-eng         : 110
        DURATION        : 00:28:27.880000000
        DURATION-eng    : 00:28:27.880000000
        NUMBER_OF_FRAMES: 352
        NUMBER_OF_FRAMES-eng: 352
        NUMBER_OF_BYTES : 23672
        NUMBER_OF_BYTES-eng: 23672
        _STATISTICS_WRITING_APP: mkvmerge v7.3.0 ('Nouages') 64bit built on Oct 22 2014 18:53:34
        _STATISTICS_WRITING_APP-eng: mkvmerge v7.3.0 ('Nouages') 64bit built on Oct 22 2014 18:53:34
        _STATISTICS_WRITING_DATE_UTC: 2016-11-12 18:53:54
        _STATISTICS_WRITING_DATE_UTC-eng: 2016-11-12 18:53:54
        _STATISTICS_TAGS: BPS DURATION NUMBER_OF_FRAMES NUMBER_OF_BYTES
        _STATISTICS_TAGS-eng: BPS DURATION NUMBER_OF_FRAMES NUMBER_OF_BYTES
Stream mapping:
  Stream #0:0 (hevc) -> settb:default
  Stream #1:0 (h264) -> settb:default
  psnr:default -> Stream #0:0 (wrapped_avframe)
  Stream #0:1 -> #0:1 (aac (native) -> pcm_s16le (native))
Output #0, null, to 'pipe:':
  Metadata:
    encoder         : Lavf61.7.100
  Stream #0:0: Video: wrapped_avframe, yuv420p10le(tv, bt709, progressive), 1280x720 [SAR 1:1 DAR 16:9], q=2-31, 200 kb/s, 23.98 fps, 23.98 tbn
      Metadata:
        encoder         : Lavc61.19.100 wrapped_avframe
  Stream #0:1(rus): Audio: pcm_s16le, 48000 Hz, stereo, s16, 1536 kb/s (default)
      Metadata:
        title           : Kari Aemi Silv Lali
        _STATISTICS_TAGS: BPS DURATION NUMBER_OF_FRAMES NUMBER_OF_BYTES
        BPS             : 193509
        DURATION        : 00:28:42.772000000
        NUMBER_OF_FRAMES: 80756
        NUMBER_OF_BYTES : 41671680
        _STATISTICS_WRITING_APP: mkvpropedit v66.0.0 ('Josie') 64-bit
        _STATISTICS_WRITING_DATE_UTC: 2025-07-31 10:30:43
        encoder         : Lavc61.19.100 pcm_s16le
frame=  465 fps=0.0 q=-0.0 size=N/A time=00:00:19.39 bitrate=N/A speed=37.9x    frame= 1064 fps=1024 q=-0.0 size=N/A time=00:00:44.37 bitrate=N/A speed=42.7x    frame= 1497 fps=966 q=-0.0 size=N/A time=00:01:02.43 bitrate=N/A speed=40.3x    frame= 1961 fps=952 q=-0.0 size=N/A time=00:01:21.79 bitrate=N/A speed=39.7x    frame= 2441 fps=944 q=-0.0 size=N/A time=00:01:41.81 bitrate=N/A speed=39.4x    frame= 2911 fps=940 q=-0.0 size=N/A time=00:02:01.41 bitrate=N/A speed=39.2x    frame= 3377 fps=936 q=-0.0 size=N/A time=00:02:20.84 bitrate=N/A speed=  39x    frame= 3826 fps=926 q=-0.0 size=N/A time=00:02:39.57 bitrate=N/A speed=38.6x    frame= 4214 fps=908 q=-0.0 size=N/A time=00:02:55.75 bitrate=N/A speed=37.9x    frame= 4577 fps=888 q=-0.0 size=N/A time=00:03:10.89 bitrate=N/A speed=  37x    frame= 5121 fps=901 q=-0.0 size=N/A time=00:03:33.58 bitrate=N/A speed=37.6x    frame= 5657 fps=914 q=-0.0 size=N/A time=00:03:55.94 bitrate=N/A speed=38.1x    frame= 6151 fps=918 q=-0.0 size=N/A time=00:04:16.54 bitrate=N/A speed=38.3x    frame= 6660 fps=923 q=-0.0 size=N/A time=00:04:37.77 bitrate=N/A speed=38.5x    frame= 7112 fps=918 q=-0.0 size=N/A time=00:04:56.62 bitrate=N/A speed=38.3x    frame= 7531 fps=913 q=-0.0 size=N/A time=00:05:14.10 bitrate=N/A speed=38.1x    frame= 7992 fps=911 q=-0.0 size=N/A time=00:05:33.33 bitrate=N/A speed=  38x    frame= 8287 fps=893 q=-0.0 size=N/A time=00:05:45.63 bitrate=N/A speed=37.2x    frame= 8771 fps=894 q=-0.0 size=N/A time=00:06:05.82 bitrate=N/A speed=37.3x    frame= 9223 fps=894 q=-0.0 size=N/A time=00:06:24.67 bitrate=N/A speed=37.3x    frame= 9853 fps=909 q=-0.0 size=N/A time=00:06:50.95 bitrate=N/A speed=37.9x    frame=10418 fps=918 q=-0.0 size=N/A time=00:07:14.51 bitrate=N/A speed=38.3x    frame=10855 fps=915 q=-0.0 size=N/A time=00:07:32.74 bitrate=N/A speed=38.2x    frame=11278 fps=911 q=-0.0 size=N/A time=00:07:50.38 bitrate=N/A speed=  38x    frame=11625 fps=902 q=-0.0 size=N/A time=00:08:04.85 bitrate=N/A speed=37.6x    frame=12013 fps=896 q=-0.0 size=N/A time=00:08:21.04 bitrate=N/A speed=37.4x    frame=12517 fps=899 q=-0.0 size=N/A time=00:08:42.06 bitrate=N/A speed=37.5x    frame=12851 fps=889 q=-0.0 size=N/A time=00:08:55.99 bitrate=N/A speed=37.1x    frame=13360 fps=893 q=-0.0 size=N/A time=00:09:17.22 bitrate=N/A speed=37.3x    frame=13823 fps=894 q=-0.0 size=N/A time=00:09:36.53 bitrate=N/A speed=37.3x    frame=14377 fps=899 q=-0.0 size=N/A time=00:09:59.64 bitrate=N/A speed=37.5x    frame=14891 fps=902 q=-0.0 size=N/A time=00:10:21.07 bitrate=N/A speed=37.6x    frame=15510 fps=912 q=-0.0 size=N/A time=00:10:46.89 bitrate=N/A speed=  38x    frame=16097 fps=918 q=-0.0 size=N/A time=00:11:11.37 bitrate=N/A speed=38.3x    frame=16613 fps=920 q=-0.0 size=N/A time=00:11:32.90 bitrate=N/A speed=38.4x    frame=17223 fps=928 q=-0.0 size=N/A time=00:11:58.34 bitrate=N/A speed=38.7x    frame=17737 fps=929 q=-0.0 size=N/A time=00:12:19.78 bitrate=N/A speed=38.8x    frame=18234 fps=931 q=-0.0 size=N/A time=00:12:40.50 bitrate=N/A speed=38.8x    frame=18795 fps=934 q=-0.0 size=N/A time=00:13:03.90 bitrate=N/A speed=  39x    frame=19255 fps=933 q=-0.0 size=N/A time=00:13:23.09 bitrate=N/A speed=38.9x    frame=19721 fps=932 q=-0.0 size=N/A time=00:13:42.53 bitrate=N/A speed=38.9x    frame=20198 fps=933 q=-0.0 size=N/A time=00:14:02.42 bitrate=N/A speed=38.9x    frame=20655 fps=931 q=-0.0 size=N/A time=00:14:21.48 bitrate=N/A speed=38.8x    frame=21228 fps=935 q=-0.0 size=N/A time=00:14:45.38 bitrate=N/A speed=  39x    frame=21748 fps=936 q=-0.0 size=N/A time=00:15:07.07 bitrate=N/A speed=  39x    frame=22286 fps=938 q=-0.0 size=N/A time=00:15:29.51 bitrate=N/A speed=39.1x    frame=22776 fps=939 q=-0.0 size=N/A time=00:15:49.94 bitrate=N/A speed=39.1x    frame=23254 fps=938 q=-0.0 size=N/A time=00:16:09.88 bitrate=N/A speed=39.1x    frame=23831 fps=942 q=-0.0 size=N/A time=00:16:33.95 bitrate=N/A speed=39.3x    frame=24310 fps=942 q=-0.0 size=N/A time=00:16:53.92 bitrate=N/A speed=39.3x    frame=24803 fps=942 q=-0.0 size=N/A time=00:17:14.49 bitrate=N/A speed=39.3x    frame=25247 fps=940 q=-0.0 size=N/A time=00:17:33.01 bitrate=N/A speed=39.2x    frame=25731 fps=940 q=-0.0 size=N/A time=00:17:53.19 bitrate=N/A speed=39.2x    frame=26128 fps=937 q=-0.0 size=N/A time=00:18:09.75 bitrate=N/A speed=39.1x    frame=26584 fps=936 q=-0.0 size=N/A time=00:18:28.77 bitrate=N/A speed=  39x    frame=27043 fps=936 q=-0.0 size=N/A time=00:18:47.91 bitrate=N/A speed=  39x    frame=27491 fps=934 q=-0.0 size=N/A time=00:19:06.60 bitrate=N/A speed=  39x    frame=28063 fps=938 q=-0.0 size=N/A time=00:19:30.46 bitrate=N/A speed=39.1x    frame=28628 fps=940 q=-0.0 size=N/A time=00:19:54.02 bitrate=N/A speed=39.2x    frame=29176 fps=942 q=-0.0 size=N/A time=00:20:16.88 bitrate=N/A speed=39.3x    frame=29585 fps=939 q=-0.0 size=N/A time=00:20:33.94 bitrate=N/A speed=39.2x    frame=30028 fps=938 q=-0.0 size=N/A time=00:20:52.41 bitrate=N/A speed=39.1x    frame=30383 fps=934 q=-0.0 size=N/A time=00:21:07.22 bitrate=N/A speed=  39x    frame=30823 fps=933 q=-0.0 size=N/A time=00:21:25.57 bitrate=N/A speed=38.9x    frame=31249 fps=931 q=-0.0 size=N/A time=00:21:43.34 bitrate=N/A speed=38.8x    frame=31568 fps=926 q=-0.0 size=N/A time=00:21:56.64 bitrate=N/A speed=38.6x    frame=31964 fps=924 q=-0.0 size=N/A time=00:22:13.16 bitrate=N/A speed=38.5x    frame=32367 fps=922 q=-0.0 size=N/A time=00:22:29.97 bitrate=N/A speed=38.4x    frame=32743 fps=919 q=-0.0 size=N/A time=00:22:45.65 bitrate=N/A speed=38.3x    frame=33143 fps=916 q=-0.0 size=N/A time=00:23:02.33 bitrate=N/A speed=38.2x    frame=33533 fps=914 q=-0.0 size=N/A time=00:23:18.60 bitrate=N/A speed=38.1x    frame=34018 fps=915 q=-0.0 size=N/A time=00:23:38.83 bitrate=N/A speed=38.1x    frame=34469 fps=914 q=-0.0 size=N/A time=00:23:57.64 bitrate=N/A speed=38.1x    frame=34842 fps=911 q=-0.0 size=N/A time=00:24:13.20 bitrate=N/A speed=  38x    frame=35221 fps=909 q=-0.0 size=N/A time=00:24:29.00 bitrate=N/A speed=37.9x    frame=35739 fps=910 q=-0.0 size=N/A time=00:24:50.61 bitrate=N/A speed=  38x    frame=36329 fps=913 q=-0.0 size=N/A time=00:25:15.22 bitrate=N/A speed=38.1x    frame=36831 fps=914 q=-0.0 size=N/A time=00:25:36.15 bitrate=N/A speed=38.1x    frame=37317 fps=915 q=-0.0 size=N/A time=00:25:56.42 bitrate=N/A speed=38.1x    frame=37836 fps=916 q=-0.0 size=N/A time=00:26:18.07 bitrate=N/A speed=38.2x    frame=38439 fps=919 q=-0.0 size=N/A time=00:26:43.22 bitrate=N/A speed=38.3x    frame=39032 fps=922 q=-0.0 size=N/A time=00:27:07.95 bitrate=N/A speed=38.4x    frame=39613 fps=924 q=-0.0 size=N/A time=00:27:32.19 bitrate=N/A speed=38.5x    frame=40242 fps=927 q=-0.0 size=N/A time=00:27:58.42 bitrate=N/A speed=38.7x    frame=40770 fps=929 q=-0.0 size=N/A time=00:28:20.44 bitrate=N/A speed=38.7x    [Parsed_psnr_10 @ 0000027815d04900] PSNR y:41.708224 u:48.256051 v:47.126765 average:42.949324 min:9.937443 max:inf
[out#0/null @ 00000278111047c0] video:17748KiB audio:323024KiB subtitle:0KiB other streams:0KiB global headers:0KiB muxing overhead: unknown
frame=41304 fps=931 q=-0.0 Lsize=N/A time=00:28:42.72 bitrate=N/A speed=38.8x    
